<svg xmlns="http://www.w3.org/2000/svg" xmlns:xlink="http://www.w3.org/1999/xlink" width="500" zoomAndPan="magnify" viewBox="0 0 375 374.999991" height="500" preserveAspectRatio="xMidYMid meet" version="1.0"><defs><clipPath id="72f5580531"><path d="M 207 58 L 356 58 L 356 211 L 207 211 Z M 207 58 " clip-rule="nonzero"/></clipPath><clipPath id="90811e0870"><path d="M 281.566406 94.523438 C 281.605469 94.523438 281.644531 94.523438 281.683594 94.523438 C 304.761719 94.585938 322.203125 114.128906 321.625 135.609375 C 321.039062 157.296875 303.398438 174.609375 281.175781 174.609375 C 281.066406 174.609375 280.957031 174.609375 280.847656 174.609375 C 258.835938 174.4375 241.445312 156.515625 241.625 134.175781 C 241.792969 112.078125 259.539062 94.515625 281.566406 94.515625 Z M 276.34375 58.433594 C 272.421875 58.582031 270.71875 60.351562 270.5625 64.253906 L 270.484375 70.886719 C 270.28125 75.164062 263.386719 79.476562 258.375 79.476562 C 257.144531 79.476562 256.027344 79.21875 255.152344 78.628906 C 254.316406 78.066406 253.671875 77.183594 253.046875 76.371094 L 249.089844 71.058594 C 247.796875 69.390625 246.351562 68.492188 244.761719 68.492188 C 243.675781 68.492188 242.519531 68.90625 241.304688 69.777344 L 232.492188 76.214844 C 229.542969 78.496094 229.164062 81.21875 231.261719 84.378906 C 232.484375 86.210938 234.265625 87.78125 235.054688 89.769531 C 235.839844 91.757812 236.722656 94.808594 235.785156 96.175781 C 233.484375 99.53125 232.191406 104.320312 227.09375 104.921875 C 226.992188 104.9375 226.890625 104.9375 226.789062 104.9375 C 225.910156 104.9375 224.964844 104.53125 224.082031 104.25 L 217.792969 102.207031 C 217.097656 102.035156 216.4375 101.941406 215.8125 101.941406 C 213.5625 101.941406 211.816406 103.089844 210.910156 105.632812 L 207.492188 116.386719 C 206.566406 119.746094 207.648438 122.269531 211.144531 123.429688 L 218.160156 125.773438 C 220.796875 126.667969 222.0625 128.511719 222.226562 131.320312 C 222.828125 141.519531 222.53125 142.015625 212.441406 145.339844 L 211.457031 145.683594 C 207.757812 147.019531 206.496094 149.054688 207.484375 152.886719 C 208.421875 156.523438 209.59375 160.113281 210.878906 163.644531 C 211.777344 166.113281 213.519531 167.34375 215.789062 167.34375 C 216.507812 167.34375 217.277344 167.21875 218.089844 166.976562 C 220.445312 166.269531 222.78125 165.035156 225.160156 164.933594 C 225.300781 164.925781 225.449219 164.925781 225.605469 164.925781 C 227.625 164.925781 230.292969 165.464844 231.261719 166.765625 C 237.199219 174.742188 239.3125 174.351562 231.824219 184.074219 L 231.199219 184.910156 C 229.171875 188.03125 229.503906 190.777344 232.453125 193.101562 L 241.273438 199.523438 C 242.480469 200.320312 243.660156 200.726562 244.785156 200.726562 C 246.367188 200.726562 247.835938 199.914062 249.121094 198.195312 C 250.683594 196.113281 251.976562 193.742188 253.890625 192.0625 C 255.058594 191.042969 257.066406 189.964844 258.523438 189.964844 C 258.78125 189.964844 259.015625 189.996094 259.234375 190.066406 C 268.753906 193.25 270.898438 190.949219 270.453125 203.933594 L 270.476562 204.710938 C 270.648438 209.050781 272.3125 210.726562 276.757812 210.859375 L 285.335938 210.890625 C 291.203125 210.828125 292.636719 209.347656 292.691406 203.425781 C 292.785156 193.289062 292.785156 193.289062 302.578125 190.246094 L 302.828125 190.183594 C 303.617188 189.894531 304.367188 189.761719 305.058594 189.761719 C 306.878906 189.761719 308.40625 190.691406 309.671875 192.367188 L 314.03125 198.351562 C 315.289062 199.9375 316.765625 200.742188 318.339844 200.742188 C 319.402344 200.742188 320.5 200.382812 321.617188 199.65625 C 324.878906 197.527344 328.015625 195.199219 331.058594 192.765625 C 333.695312 190.652344 333.960938 187.984375 332.035156 185.183594 L 327.9375 179.484375 C 325.996094 176.839844 326.082031 174.359375 328.03125 171.644531 C 331.628906 166.628906 333 164.675781 335.878906 164.675781 C 337.691406 164.675781 340.109375 165.449219 344.050781 166.71875 L 345.050781 167 C 345.898438 167.304688 346.679688 167.445312 347.390625 167.445312 C 349.613281 167.445312 351.167969 166.035156 352.179688 163.589844 L 353.8125 158.800781 C 357.027344 149.21875 358.164062 147.261719 346.460938 143.898438 C 344.550781 143.351562 342.277344 141.84375 341.445312 140.152344 C 338.183594 133.511719 341.28125 126.933594 348.28125 124.679688 C 356.621094 121.996094 357.152344 120.964844 354.335938 112.328125 L 354.117188 111.578125 C 351.929688 104.5625 351.058594 102.011719 347.796875 102.011719 C 345.960938 102.011719 343.371094 102.824219 339.359375 104.09375 C 338.347656 104.414062 337.136719 104.65625 335.996094 104.65625 C 335.195312 104.65625 334.429688 104.539062 333.789062 104.25 C 327.367188 101.332031 325.441406 93.171875 329.492188 87.554688 L 333.820312 80.953125 C 332.835938 79.296875 332.347656 77.691406 331.261719 76.800781 C 328.046875 74.179688 324.660156 71.753906 321.226562 69.414062 C 320.242188 68.742188 319.285156 68.4375 318.371094 68.4375 C 316.875 68.4375 315.492188 69.257812 314.320312 70.652344 L 309.9375 76.605469 C 308.570312 78.558594 306.933594 79.453125 304.957031 79.453125 C 304.179688 79.453125 303.34375 79.3125 302.453125 79.039062 C 292.730469 76.074219 292.722656 76.113281 292.636719 65.394531 L 292.628906 64.355469 C 292.449219 60.523438 290.6875 58.597656 286.886719 58.433594 Z M 276.34375 58.433594 " clip-rule="nonzero"/></clipPath><clipPath id="78e82ba754"><path d="M 52.496094 107 L 295 107 L 295 268 L 52.496094 268 Z M 52.496094 107 " clip-rule="nonzero"/></clipPath><clipPath id="821c69caab"><path d="M 281.777344 219.445312 C 286.277344 218.742188 290.320312 218.117188 294.535156 217.460938 C 294.535156 227.832031 295.460938 238.65625 294.285156 249.234375 C 293.027344 260.535156 283.617188 267.351562 271.9375 267.359375 L 139.65625 267.375 C 118.457031 267.375 97.25 267.125 76.054688 267.460938 C 63.390625 267.664062 52.632812 257.398438 52.78125 244.148438 C 53.210938 206.421875 53.203125 168.6875 52.78125 130.96875 C 52.640625 118.234375 62.402344 107.425781 76.289062 107.503906 C 116.996094 107.730469 157.710938 107.589844 198.425781 107.589844 C 199.324219 107.589844 200.222656 107.589844 201.421875 107.589844 C 200.425781 111.96875 199.488281 116.058594 198.457031 120.589844 L 194.371094 120.589844 C 155.738281 120.589844 117.105469 120.589844 78.484375 120.589844 C 69.859375 120.589844 66.054688 124.304688 66.054688 132.792969 L 66.054688 242.078125 C 66.054688 250.84375 69.546875 254.316406 78.382812 254.316406 L 269.582031 254.324219 C 277.828125 254.324219 281.769531 250.414062 281.785156 242.210938 L 281.792969 219.453125 " clip-rule="nonzero"/></clipPath><clipPath id="60b52a1669"><path d="M 41 282.132812 L 306 282.132812 L 306 300.824219 L 41 300.824219 Z M 41 282.132812 " clip-rule="nonzero"/></clipPath><clipPath id="9a374cdc2d"><path d="M 305.949219 282.601562 C 306.128906 291.910156 299.035156 299.617188 289.453125 299.828125 C 261.535156 300.445312 233.601562 300.046875 205.714844 300.046875 C 203.265625 290.980469 201.539062 289.652344 192.144531 289.628906 L 153.929688 289.613281 C 146.234375 289.636719 143.386719 292.179688 142.285156 299.929688 L 139.3125 300.195312 C 113.570312 300.203125 87.839844 300.289062 62.097656 300.085938 C 58.460938 300.054688 54.597656 299.125 51.25 297.675781 C 45.015625 294.976562 41.949219 289.722656 41.417969 282.609375 Z M 305.949219 282.601562 " clip-rule="nonzero"/></clipPath><clipPath id="1eb0327265"><path d="M 19.003906 27.441406 L 227.742188 27.441406 L 227.742188 182 L 19.003906 182 Z M 19.003906 27.441406 " clip-rule="nonzero"/></clipPath><clipPath id="1a6f8ce934"><path d="M 94.324219 27.449219 C 90.984375 27.457031 87.621094 27.589844 84.226562 27.871094 C 67.738281 29.21875 52.742188 34.535156 40.539062 46.128906 C 23.300781 62.492188 18.472656 83.488281 19.058594 106.203125 C 19.507812 123.875 23.652344 140.910156 29.863281 157.402344 C 32.945312 165.597656 36.589844 173.585938 39.976562 181.671875 L 40.382812 181.546875 L 41.199219 181.289062 C 41.199219 175.054688 41.386719 168.8125 41.121094 162.585938 C 41 159.691406 40.421875 156.671875 39.335938 153.996094 C 30.277344 131.515625 23.667969 108.683594 26.265625 83.949219 C 29.050781 57.394531 47.972656 37.976562 74.527344 34.714844 C 78.625 34.207031 82.679688 33.972656 86.714844 33.972656 C 100.082031 33.972656 113.113281 36.5625 125.96875 40.574219 C 155.707031 49.851562 182.160156 65.378906 206.925781 83.964844 C 212.480469 88.132812 217.871094 92.515625 223.542969 96.972656 C 225.097656 94.832031 226.367188 93.070312 227.5625 91.425781 L 221.21875 80.960938 C 220.15625 79.28125 219.183594 77.347656 217.660156 76.207031 C 202.226562 64.667969 185.925781 54.507812 168.433594 46.371094 C 144.914062 35.414062 120.695312 27.496094 94.789062 27.449219 Z M 94.324219 27.449219 " clip-rule="nonzero"/></clipPath><clipPath id="2a2c83513d"><path d="M 158.421875 208 L 339.898438 208 L 339.898438 348 L 158.421875 348 Z M 158.421875 208 " clip-rule="nonzero"/></clipPath><clipPath id="600ebb07a8"><path d="M 312.136719 208.027344 C 312.136719 208.027344 312.136719 208.035156 312.128906 208.042969 C 312.128906 208.035156 312.136719 208.027344 312.136719 208.027344 Z M 312.128906 208.042969 C 312.113281 208.082031 312.050781 208.207031 311.855469 208.535156 C 312.027344 208.566406 312.191406 208.605469 312.363281 208.636719 L 312.128906 208.097656 C 312.121094 208.082031 312.128906 208.058594 312.128906 208.042969 Z M 312.363281 208.636719 L 317.785156 221.324219 C 326.664062 243.210938 332.691406 265.558594 330.105469 289.582031 C 327.703125 312.015625 313.953125 329.378906 292.457031 336.050781 C 285.046875 338.351562 277.5625 339.285156 270.054688 339.285156 C 263.261719 339.285156 256.449219 338.523438 249.628906 337.304688 C 227.914062 333.433594 207.570312 325.492188 188.6875 314.386719 C 183.507812 311.335938 178.320312 310.714844 173.105469 310.714844 C 169.457031 310.714844 165.789062 311.023438 162.097656 311.023438 C 161.035156 311.023438 159.984375 311 158.914062 310.933594 C 160.222656 312.359375 161.644531 313.414062 163.191406 314.230469 C 173.605469 319.796875 183.796875 325.875 194.542969 330.726562 C 216.863281 340.816406 239.898438 347.566406 264.382812 347.566406 C 267.988281 347.566406 271.625 347.417969 275.300781 347.113281 C 310.0625 344.234375 335.757812 318.539062 338.691406 283.785156 C 340.203125 265.847656 337.707031 248.53125 332.914062 231.429688 C 330.902344 224.234375 328.148438 217.25 326.152344 211.398438 C 320.890625 210.347656 316.742188 209.519531 312.355469 208.644531 Z M 312.363281 208.636719 " clip-rule="nonzero"/></clipPath><clipPath id="556723677e"><path d="M 142.84375 168.417969 L 205 168.417969 L 205 232.285156 L 142.84375 232.285156 Z M 142.84375 168.417969 " clip-rule="nonzero"/></clipPath><clipPath id="ce5efe0f02"><path d="M 190.421875 200.429688 C 190.453125 191.121094 183.257812 183.792969 174.019531 183.714844 C 164.632812 183.636719 157.074219 191.097656 157.085938 200.429688 C 157.101562 209.503906 164.570312 216.894531 173.839844 216.992188 C 182.992188 217.09375 190.398438 209.699219 190.429688 200.429688 M 147.304688 187.234375 C 148.941406 187.375 150.738281 188 152.1875 187.546875 C 154.792969 186.726562 155.550781 183.089844 153.671875 180.5625 C 151.515625 177.660156 153.09375 176.238281 155.332031 174.617188 C 157.492188 173.046875 159.421875 172.089844 161.128906 175.007812 C 162.363281 177.113281 163.914062 177.722656 166.335938 176.949219 C 168.832031 176.152344 169.511719 174.578125 169.300781 172.238281 C 168.964844 168.625 171.46875 168.75 173.910156 168.726562 C 176.4375 168.695312 178.796875 168.828125 178.507812 172.324219 C 178.3125 174.65625 178.914062 176.222656 181.472656 176.996094 C 183.976562 177.761719 185.425781 176.886719 186.644531 174.898438 C 188.492188 171.878906 190.421875 173.3125 192.457031 174.742188 C 194.574219 176.222656 196.265625 177.714844 194.035156 180.34375 C 192.503906 182.148438 192.199219 183.808594 193.753906 185.914062 C 195.304688 188.023438 196.890625 188.226562 199.121094 187.304688 C 202.203125 186.03125 203.21875 188.054688 204.007812 190.535156 C 204.769531 192.960938 205.355469 195.191406 202.039062 196.058594 C 199.800781 196.644531 198.472656 197.644531 198.511719 200.335938 C 198.550781 202.949219 199.722656 204.089844 202.007812 204.664062 C 205.683594 205.59375 204.621094 207.980469 203.90625 210.480469 C 203.117188 213.242188 201.75 214.660156 198.878906 213.390625 C 196.765625 212.453125 195.304688 212.71875 193.871094 214.675781 C 192.386719 216.707031 192.378906 218.40625 193.996094 220.253906 C 196.171875 222.753906 194.921875 224.351562 192.644531 225.898438 C 190.453125 227.386719 188.410156 228.894531 186.503906 225.710938 C 185.226562 223.5625 183.5625 223.066406 181.238281 223.8125 C 178.929688 224.554688 178.367188 226.148438 178.554688 228.324219 C 178.859375 232.007812 176.375 232.117188 173.699219 232.117188 C 171.101562 232.117188 168.886719 231.84375 169.261719 228.386719 C 169.496094 226.195312 168.855469 224.601562 166.535156 223.898438 C 164.3125 223.226562 162.542969 223.320312 161.246094 225.640625 C 159.5 228.769531 157.445312 227.714844 155.167969 226.046875 C 152.867188 224.367188 151.375 222.722656 153.75 220.089844 C 155.277344 218.398438 155.472656 216.894531 154.003906 214.933594 C 152.523438 212.960938 151.101562 212.289062 148.738281 213.398438 C 146.1875 214.589844 144.632812 213.585938 143.941406 210.789062 C 143.324219 208.316406 141.566406 205.742188 145.664062 204.671875 C 147.878906 204.097656 149.175781 203.003906 149.175781 200.34375 C 149.175781 197.683594 147.910156 196.714844 145.671875 196.042969 C 143.878906 195.503906 142.097656 194.578125 143.292969 192.140625 C 144.269531 190.160156 143.589844 186.820312 147.3125 187.226562 " clip-rule="nonzero"/></clipPath><clipPath id="2b41b4fb6f"><path d="M 89.101562 139 L 131 139 L 131 181.660156 L 89.101562 181.660156 Z M 89.101562 139 " clip-rule="nonzero"/></clipPath><clipPath id="ad4bfe649b"><path d="M 98.878906 160.183594 C 98.832031 166.355469 103.726562 171.371094 109.835938 171.417969 C 115.984375 171.464844 120.953125 166.550781 120.992188 160.386719 C 121.03125 154.210938 116.164062 149.203125 110.035156 149.117188 C 103.957031 149.03125 98.933594 154.027344 98.878906 160.183594 M 96.710938 177.167969 L 93.308594 173.289062 C 93.832031 172.527344 94.414062 171.964844 94.625 171.285156 C 94.976562 170.175781 95.578125 168.773438 95.179688 167.90625 C 94.78125 167.046875 93.199219 166.113281 92.285156 166.246094 C 89.78125 166.597656 89.09375 165.035156 89.210938 163.359375 C 89.289062 162.242188 90.367188 160.773438 91.394531 160.222656 C 94.136719 158.753906 94.414062 156.804688 92.238281 154.59375 C 91.425781 153.769531 90.929688 152.058594 91.148438 150.921875 C 91.503906 149.039062 92.800781 148.398438 94.96875 149.125 C 98.222656 150.210938 99.472656 148.546875 98.878906 145.035156 C 98.699219 144 99.605469 142.140625 100.519531 141.710938 C 101.445312 141.277344 103.421875 141.695312 104.183594 142.484375 C 106.613281 144.972656 108.96875 144.894531 109.796875 141.628906 C 110.425781 139.136719 111.988281 139.050781 113.507812 139.667969 C 114.554688 140.097656 115.640625 141.589844 115.8125 142.742188 C 116.296875 145.878906 118.191406 147.074219 120.726562 145.113281 C 122.546875 143.710938 123.933594 143.859375 124.878906 145.589844 C 125.433594 146.613281 125.589844 148.382812 125.066406 149.367188 C 123.558594 152.214844 124.292969 154.28125 127.460938 154.265625 C 129.652344 154.257812 130.472656 155.0625 130.816406 157.054688 C 131.175781 159.160156 130.410156 159.988281 128.34375 160.5625 C 125.675781 161.304688 125.261719 164.222656 127.632812 165.769531 C 129.488281 166.984375 129.769531 167.992188 128.757812 169.859375 C 127.804688 171.605469 126.929688 172.285156 124.792969 171.417969 C 122.0625 170.308594 120.03125 172.183594 121.023438 174.921875 C 121.84375 177.183594 121.289062 178.207031 119.355469 179.238281 C 117.355469 180.296875 116.464844 179.601562 115.335938 177.871094 C 113.8125 175.546875 111.371094 176.214844 110.027344 178.785156 C 109.492188 179.8125 108.125 180.96875 107.0625 181.046875 C 105.199219 181.1875 103.507812 180.515625 103.972656 177.800781 C 104.113281 176.972656 103.28125 175.429688 102.523438 175.140625 C 101.578125 174.773438 100.230469 175.234375 99.121094 175.5625 C 98.433594 175.765625 97.863281 176.371094 96.71875 177.160156 " clip-rule="nonzero"/></clipPath><clipPath id="bdc9b561a6"><path d="M 255.78125 108.445312 L 307.964844 108.445312 L 307.964844 160.628906 L 255.78125 160.628906 Z M 255.78125 108.445312 " clip-rule="nonzero"/></clipPath><clipPath id="89a57b4651"><path d="M 255.933594 134.324219 C 256.089844 120.035156 267.660156 108.808594 282.027344 108.996094 C 295.875 109.175781 307.542969 121.152344 307.285156 134.925781 C 307.027344 148.914062 295.304688 160.433594 281.449219 160.316406 C 267.222656 160.199219 255.777344 148.53125 255.933594 134.332031 " clip-rule="nonzero"/></clipPath></defs><rect x="-37.5" width="450" fill="#ffffff" y="-37.499999" height="449.999989" fill-opacity="1"/><rect x="-37.5" width="450" fill="#ffffff" y="-37.499999" height="449.999989" fill-opacity="1"/><g clip-path="url(#72f5580531)"><g clip-path="url(#90811e0870)"><path fill="#ff914d" d="M 15.109375 23.546875 L 360.148438 23.546875 L 360.148438 351.453125 L 15.109375 351.453125 Z M 15.109375 23.546875 " fill-opacity="1" fill-rule="nonzero"/></g></g><g clip-path="url(#78e82ba754)"><g clip-path="url(#821c69caab)"><path fill="#ff914d" d="M 15.109375 23.546875 L 360.148438 23.546875 L 360.148438 351.453125 L 15.109375 351.453125 Z M 15.109375 23.546875 " fill-opacity="1" fill-rule="nonzero"/></g></g><g clip-path="url(#60b52a1669)"><g clip-path="url(#9a374cdc2d)"><path fill="#ff914d" d="M 15.109375 23.546875 L 360.148438 23.546875 L 360.148438 351.453125 L 15.109375 351.453125 Z M 15.109375 23.546875 " fill-opacity="1" fill-rule="nonzero"/></g></g><g clip-path="url(#1eb0327265)"><g clip-path="url(#1a6f8ce934)"><path fill="#ff914d" d="M 15.109375 23.546875 L 360.148438 23.546875 L 360.148438 351.453125 L 15.109375 351.453125 Z M 15.109375 23.546875 " fill-opacity="1" fill-rule="nonzero"/></g></g><g clip-path="url(#2a2c83513d)"><g clip-path="url(#600ebb07a8)"><path fill="#ff914d" d="M 15.109375 23.546875 L 360.148438 23.546875 L 360.148438 351.453125 L 15.109375 351.453125 Z M 15.109375 23.546875 " fill-opacity="1" fill-rule="nonzero"/></g></g><g clip-path="url(#556723677e)"><g clip-path="url(#ce5efe0f02)"><path fill="#000000" d="M 15.109375 23.546875 L 360.148438 23.546875 L 360.148438 351.453125 L 15.109375 351.453125 Z M 15.109375 23.546875 " fill-opacity="1" fill-rule="nonzero"/></g></g><g clip-path="url(#2b41b4fb6f)"><g clip-path="url(#ad4bfe649b)"><path fill="#000000" d="M 15.109375 23.546875 L 360.148438 23.546875 L 360.148438 351.453125 L 15.109375 351.453125 Z M 15.109375 23.546875 " fill-opacity="1" fill-rule="nonzero"/></g></g><g clip-path="url(#bdc9b561a6)"><g clip-path="url(#89a57b4651)"><path fill="#000000" d="M 15.109375 23.546875 L 360.148438 23.546875 L 360.148438 351.453125 L 15.109375 351.453125 Z M 15.109375 23.546875 " fill-opacity="1" fill-rule="nonzero"/></g></g></svg>